<?xml version="1.0" encoding="UTF-8"?>
<!DOCTYPE svg PUBLIC "-//W3C//DTD SVG 1.1//EN" "http://www.w3.org/Graphics/SVG/1.1/DTD/svg11.dtd">
<svg xmlns="http://www.w3.org/2000/svg" version="1.1" width="1024px" height="1024px" style="shape-rendering:geometricPrecision; text-rendering:geometricPrecision; image-rendering:optimizeQuality; fill-rule:evenodd; clip-rule:evenodd" xmlns:xlink="http://www.w3.org/1999/xlink">
<g><path style="opacity:0.004" fill="#343634" d="M 276.5,248.5 C 277.833,249.167 277.833,249.167 276.5,248.5 Z"/></g>
<g><path style="opacity:0.012" fill="#313231" d="M 283.5,249.5 C 284.833,250.167 284.833,250.167 283.5,249.5 Z"/></g>
<g><path style="opacity:0.004" fill="#2e312f" d="M 292.5,251.5 C 293.833,252.167 293.833,252.167 292.5,251.5 Z"/></g>
<g><path style="opacity:0.998" fill="#010101" d="M 401.5,320.5 C 402.558,324.844 403.724,329.177 405,333.5C 405.5,334.667 406.333,335.5 407.5,336C 407.167,336.333 406.833,336.667 406.5,337C 425.253,337.237 444.253,337.403 463.5,337.5C 464.5,337.5 465.5,337.5 466.5,337.5C 488.324,336.883 509.324,336.883 529.5,337.5C 569.67,337.832 609.67,337.499 649.5,336.5C 716.711,335.438 784.711,335.271 853.5,336C 861.093,338.092 865.76,342.925 867.5,350.5C 867.5,352.833 867.5,355.167 867.5,357.5C 864.833,368.167 862.167,378.833 859.5,389.5C 840.942,454.692 822.442,520.025 804,585.5C 800.178,596.176 793.012,603.51 782.5,607.5C 777.968,607.182 773.634,607.515 769.5,608.5C 719.415,608.47 670.582,608.803 623,609.5C 608.951,606.735 604.951,598.735 611,585.5C 613.894,582.639 617.061,580.139 620.5,578C 632.745,572.376 644.745,566.543 656.5,560.5C 662.351,558.778 667.684,556.111 672.5,552.5C 680.969,548.659 688.303,543.992 694.5,538.5C 701.5,533.5 707.5,527.5 712.5,520.5C 721.879,508.482 721.713,496.482 712,484.5C 707.224,479.878 702.058,475.878 696.5,472.5C 691.153,468.156 685.153,464.823 678.5,462.5C 675.485,460.326 672.151,458.659 668.5,457.5C 662.136,454.263 655.47,451.597 648.5,449.5C 644.556,447.036 640.223,445.37 635.5,444.5C 598.67,430.536 561.003,418.869 522.5,409.5C 501.028,402.973 479.028,398.806 456.5,397C 462.45,399.116 468.45,400.116 474.5,400C 473.167,400.333 471.833,400.667 470.5,401C 474.141,402.269 477.808,403.436 481.5,404.5C 482.107,404.376 482.44,404.043 482.5,403.5C 512.182,414.285 541.849,425.285 571.5,436.5C 577.498,440.063 583.832,443.063 590.5,445.5C 604.006,452.672 617.006,460.672 629.5,469.5C 635.207,474.576 639.707,480.576 643,487.5C 645.667,495.819 644.333,503.485 639,510.5C 635.629,513.703 632.462,517.036 629.5,520.5C 623.627,523.931 617.96,527.598 612.5,531.5C 595.317,540.09 577.65,547.59 559.5,554C 528.967,564.232 498.634,574.732 468.5,585.5C 467.209,585.263 466.209,585.596 465.5,586.5C 438.005,594.915 412.338,607.082 388.5,623C 382.141,627.021 377.641,632.521 375,639.5C 374.064,644.462 375.898,647.962 380.5,650C 383.188,650.392 385.855,650.892 388.5,651.5C 514.812,650.654 642.812,650.488 772.5,651C 775.862,652.343 778.862,654.176 781.5,656.5C 786.264,665.362 785.264,673.529 778.5,681C 775.691,682.741 772.691,683.908 769.5,684.5C 758.828,684.333 748.161,684.5 737.5,685C 738.044,685.717 738.711,686.217 739.5,686.5C 754.061,703.13 758.227,722.13 752,743.5C 750.487,747.188 748.987,750.855 747.5,754.5C 739.973,765.363 730.306,773.697 718.5,779.5C 705.271,784.339 691.937,784.672 678.5,780.5C 677.817,780.863 677.15,781.196 676.5,781.5C 673,778.56 669,776.06 664.5,774C 659.61,769.892 655.276,766.058 651.5,762.5C 636.905,740.597 635.738,717.931 648,694.5C 649.458,692.04 651.291,689.873 653.5,688C 651.068,686.913 651.402,686.413 654.5,686.5C 655.289,686.217 655.956,685.717 656.5,685C 603.833,684.333 551.167,684.333 498.5,685C 499.044,685.717 499.711,686.217 500.5,686.5C 501.833,687.833 503.167,689.167 504.5,690.5C 507.182,695.202 509.849,699.869 512.5,704.5C 520.716,734.025 512.383,757.525 487.5,775C 472.218,783.717 456.218,785.55 439.5,780.5C 439.158,779.662 438.492,779.328 437.5,779.5C 431.888,777.361 426.554,774.694 421.5,771.5C 418.538,768.036 415.371,764.703 412,761.5C 409.241,757.593 406.741,753.593 404.5,749.5C 404.5,749.167 404.5,748.833 404.5,748.5C 404.737,747.209 404.404,746.209 403.5,745.5C 402.833,744.833 402.167,744.167 401.5,743.5C 402.097,743.265 402.43,742.765 402.5,742C 396.962,721.661 400.962,703.494 414.5,687.5C 415.922,687.25 416.922,686.417 417.5,685C 398.503,684.5 379.503,684.333 360.5,684.5C 348.753,682.388 339.753,676.388 333.5,666.5C 333.068,665.29 332.401,664.29 331.5,663.5C 331.737,662.209 331.404,661.209 330.5,660.5C 327.305,647.671 329.305,635.671 336.5,624.5C 338.522,622.469 340.189,620.135 341.5,617.5C 344.167,615.5 346.5,613.167 348.5,610.5C 354.567,605.602 359.734,599.935 364,593.5C 366.312,588.732 365.812,584.399 362.5,580.5C 360.24,576.839 356.907,574.339 352.5,573C 348.58,571.687 344.58,570.687 340.5,570C 332.255,569.817 324.088,569.317 316,568.5C 292.763,568.565 269.096,568.898 245,569.5C 239.583,568.691 234.083,568.191 228.5,568C 217.893,562.631 214.726,554.464 219,543.5C 220.332,541.34 221.832,539.34 223.5,537.5C 230.017,534.046 237.017,532.713 244.5,533.5C 274.45,534.248 304.616,534.581 335,534.5C 364.428,533.671 393.928,533.171 423.5,533C 427.303,530.633 428.303,527.466 426.5,523.5C 423.972,514.416 421.139,505.416 418,496.5C 417.023,497.774 416.189,497.774 415.5,496.5C 318.668,495.501 221.668,495.167 124.5,495.5C 122.079,495.122 119.746,494.455 117.5,493.5C 117.167,492.5 116.5,491.833 115.5,491.5C 111.727,485.362 110.56,478.696 112,471.5C 114.832,464.496 119.999,460.829 127.5,460.5C 170.167,460.5 212.833,460.5 255.5,460.5C 255.833,460.5 256.167,460.5 256.5,460.5C 270.5,460.5 284.5,460.5 298.5,460.5C 308.604,459.949 318.938,459.449 329.5,459C 337.38,458.964 344.546,456.797 351,452.5C 352.368,451.007 352.535,449.507 351.5,448C 352.308,447.692 352.975,447.192 353.5,446.5C 352.795,443.06 351.129,440.394 348.5,438.5C 345.961,435.81 342.961,433.643 339.5,432C 327.28,427.289 314.613,424.622 301.5,424C 291.493,423.547 281.493,423.047 271.5,422.5C 260.012,421.505 248.345,421.172 236.5,421.5C 227.5,421.5 218.5,421.5 209.5,421.5C 200.207,421.515 191.374,421.848 183,422.5C 179.778,421.689 176.612,420.689 173.5,419.5C 166.529,412.788 164.696,404.788 168,395.5C 171.662,390.169 176.662,386.835 183,385.5C 189.877,385.912 196.71,386.245 203.5,386.5C 205.32,386.351 206.82,385.684 208,384.5C 213.086,385.806 218.42,386.473 224,386.5C 235.105,386.178 246.272,385.845 257.5,385.5C 268.501,386.456 279.501,386.789 290.5,386.5C 291.192,385.975 291.692,385.308 292,384.5C 293.698,385.733 295.698,386.4 298,386.5C 326.871,385.977 355.037,385.977 382.5,386.5C 378.85,373.549 374.516,360.549 369.5,347.5C 366.169,334.172 361.835,321.172 356.5,308.5C 353.964,306.628 351.297,305.128 348.5,304C 325.497,299.666 302.497,295.333 279.5,291C 274.663,289.753 270.663,287.253 267.5,283.5C 267.5,282.833 267.167,282.5 266.5,282.5C 261.23,265.364 267.397,255.364 285,252.5C 311.665,256.433 338.165,261.266 364.5,267C 376.858,272.024 386.025,280.524 392,292.5C 395.103,301.979 398.27,311.312 401.5,320.5 Z M 475.5,715.5 C 476.931,716.78 477.598,718.447 477.5,720.5C 480.215,731.023 476.881,739.023 467.5,744.5C 452.284,751.141 442.118,746.475 437,730.5C 435.665,715.484 442.331,706.484 457,703.5C 463.699,704.017 469.366,706.683 474,711.5C 474.791,712.745 475.291,714.078 475.5,715.5 Z M 706.5,744.5 C 700.053,748.303 693.386,748.47 686.5,745C 687.34,743.334 686.84,743.167 685,744.5C 684.283,743.956 683.783,743.289 683.5,742.5C 673.195,731.781 672.862,720.614 682.5,709C 691.731,702.477 701.065,702.477 710.5,709C 718.351,718.004 719.518,727.838 714,738.5C 711.894,741.118 709.394,743.118 706.5,744.5 Z"/></g>
<g><path style="opacity:0.004" fill="#2b2c2b" d="M 315.5,255.5 C 316.833,256.167 316.833,256.167 315.5,255.5 Z"/></g>
<g><path style="opacity:0.004" fill="#373633" d="M 263.5,259.5 C 264.833,260.167 264.833,260.167 263.5,259.5 Z"/></g>
<g><path style="opacity:0.008" fill="#343230" d="M 264.5,262.5 C 265.833,263.167 265.833,263.167 264.5,262.5 Z"/></g>
<g><path style="opacity:0.004" fill="#262826" d="M 363.5,264.5 C 364.833,265.167 364.833,265.167 363.5,264.5 Z"/></g>
<g><path style="opacity:0.004" fill="#2f2f2d" d="M 266.5,282.5 C 267.167,282.5 267.5,282.833 267.5,283.5C 267.158,284.338 266.492,284.672 265.5,284.5C 265.328,283.508 265.662,282.842 266.5,282.5 Z"/></g>
<g><path style="opacity:0.008" fill="#2e2f2d" d="M 265.5,284.5 C 264.833,285.167 264.833,285.167 265.5,284.5 Z"/></g>
<g><path style="opacity:0.004" fill="#292a27" d="M 276.5,291.5 C 277.833,292.167 277.833,292.167 276.5,291.5 Z"/></g>
<g><path style="opacity:0.004" fill="#262726" d="M 285.5,293.5 C 286.833,294.167 286.833,294.167 285.5,293.5 Z"/></g>
<g><path style="opacity:0.004" fill="#262725" d="M 288.5,294.5 C 289.833,295.167 289.833,295.167 288.5,294.5 Z"/></g>
<g><path style="opacity:0.016" fill="#252523" d="M 313.5,298.5 C 314.833,299.167 314.833,299.167 313.5,298.5 Z"/></g>
<g><path style="opacity:0.004" fill="#1c1d1b" d="M 401.5,319.5 C 402.833,320.167 402.833,320.167 401.5,319.5 Z"/></g>
<g><path style="opacity:0.004" fill="#202221" d="M 360.5,323.5 C 361.833,324.167 361.833,324.167 360.5,323.5 Z"/></g>
<g><path style="opacity:0.008" fill="#21241f" d="M 361.5,327.5 C 362.833,328.167 362.833,328.167 361.5,327.5 Z"/></g>
<g><path style="opacity:0.004" fill="#1e1f1d" d="M 359.5,328.5 C 360.833,329.167 360.833,329.167 359.5,328.5 Z"/></g>
<g><path style="opacity:0.008" fill="#1d201d" d="M 359.5,330.5 C 360.833,331.167 360.833,331.167 359.5,330.5 Z"/></g>
<g><path style="opacity:0.004" fill="#222221" d="M 779.5,333.5 C 780.833,334.167 780.833,334.167 779.5,333.5 Z"/></g>
<g><path style="opacity:0.01" fill="#343432" d="M 466.5,337.5 C 465.5,337.5 464.5,337.5 463.5,337.5C 463.957,335.443 464.957,335.443 466.5,337.5 Z"/></g>
<g><path style="opacity:0.645" fill="#20201f" d="M 649.5,336.5 C 609.67,337.499 569.67,337.832 529.5,337.5C 565.183,336.818 601.016,336.151 637,335.5C 640.982,336.491 645.149,336.824 649.5,336.5 Z"/></g>
<g><path style="opacity:0.008" fill="#201f21" d="M 369.5,347.5 C 368.833,348.167 368.833,348.167 369.5,347.5 Z"/></g>
<g><path style="opacity:0.008" fill="#1e221e" d="M 369.5,351.5 C 370.833,352.167 370.833,352.167 369.5,351.5 Z"/></g>
<g><path style="opacity:0.412" fill="#393839" d="M 867.5,350.5 C 868.239,350.369 868.906,350.536 869.5,351C 868.883,353.277 868.216,355.444 867.5,357.5C 867.5,355.167 867.5,352.833 867.5,350.5 Z"/></g>
<g><path style="opacity:0.004" fill="#3a3938" d="M 868.5,358.5 C 869.833,359.167 869.833,359.167 868.5,358.5 Z"/></g>
<g><path style="opacity:0.004" fill="#313231" d="M 864.5,372.5 C 865.833,373.167 865.833,373.167 864.5,372.5 Z"/></g>
<g><path style="opacity:0.004" fill="#1b1e19" d="M 375.5,377.5 C 376.833,378.167 376.833,378.167 375.5,377.5 Z"/></g>
<g><path style="opacity:0.004" fill="#1c1d1a" d="M 379.5,381.5 C 380.833,382.167 380.833,382.167 379.5,381.5 Z"/></g>
<g><path style="opacity:0.004" fill="#2f3333" d="M 179.5,383.5 C 180.833,384.167 180.833,384.167 179.5,383.5 Z"/></g>
<g><path style="opacity:0.004" fill="#292f28" d="M 239.5,383.5 C 240.833,384.167 240.833,384.167 239.5,383.5 Z"/></g>
<g><path style="opacity:0.004" fill="#262821" d="M 277.5,383.5 C 278.833,384.167 278.833,384.167 277.5,383.5 Z"/></g>
<g><path style="opacity:0.004" fill="#262525" d="M 295.5,384.5 C 295.897,383.475 296.563,383.308 297.5,384C 296.906,384.464 296.239,384.631 295.5,384.5 Z"/></g>
<g><path style="opacity:0.004" fill="#272623" d="M 301.5,383.5 C 302.833,384.167 302.833,384.167 301.5,383.5 Z"/></g>
<g><path style="opacity:0.012" fill="#202420" d="M 343.5,383.5 C 344.833,384.167 344.833,384.167 343.5,383.5 Z"/></g>
<g><path style="opacity:0.012" fill="#303231" d="M 179.5,384.5 C 178.833,385.167 178.833,385.167 179.5,384.5 Z"/></g>
<g><path style="opacity:0.004" fill="#2e332b" d="M 218.5,384.5 C 219.833,385.167 219.833,385.167 218.5,384.5 Z"/></g>
<g><path style="opacity:0.004" fill="#2d2e2a" d="M 257.5,384.5 C 258.833,385.167 258.833,385.167 257.5,384.5 Z"/></g>
<g><path style="opacity:0.008" fill="#292e28" d="M 260.5,384.5 C 261.833,385.167 261.833,385.167 260.5,384.5 Z"/></g>
<g><path style="opacity:0.004" fill="#282925" d="M 286.5,384.5 C 287.833,385.167 287.833,385.167 286.5,384.5 Z"/></g>
<g><path style="opacity:0.008" fill="#282824" d="M 310.5,384.5 C 311.833,385.167 311.833,385.167 310.5,384.5 Z"/></g>
<g><path style="opacity:0.004" fill="#242322" d="M 318.5,384.5 C 319.833,385.167 319.833,385.167 318.5,384.5 Z"/></g>
<g><path style="opacity:0.004" fill="#282824" d="M 324.5,384.5 C 325.833,385.167 325.833,385.167 324.5,384.5 Z"/></g>
<g><path style="opacity:0.004" fill="#292625" d="M 326.5,384.5 C 327.833,385.167 327.833,385.167 326.5,384.5 Z"/></g>
<g><path style="opacity:0.004" fill="#262624" d="M 332.5,384.5 C 333.833,385.167 333.833,385.167 332.5,384.5 Z"/></g>
<g><path style="opacity:0.007" fill="#262826" d="M 336.5,385.5 C 337.251,384.427 338.251,384.26 339.5,385C 338.552,385.483 337.552,385.649 336.5,385.5 Z"/></g>
<g><path style="opacity:0.012" fill="#252524" d="M 343.5,384.5 C 342.833,385.167 342.833,385.167 343.5,384.5 Z"/></g>
<g><path style="opacity:0.008" fill="#232221" d="M 348.5,384.5 C 349.833,385.167 349.833,385.167 348.5,384.5 Z"/></g>
<g><path style="opacity:0.008" fill="#313332" d="M 175.5,386.5 C 175.897,385.475 176.563,385.308 177.5,386C 176.906,386.464 176.239,386.631 175.5,386.5 Z"/></g>
<g><path style="opacity:0.004" fill="#31332f" d="M 172.5,387.5 C 173.833,388.167 173.833,388.167 172.5,387.5 Z"/></g>
<g><path style="opacity:0.016" fill="#2d2e2f" d="M 859.5,389.5 C 860.833,390.167 860.833,390.167 859.5,389.5 Z"/></g>
<g><path style="opacity:0.004" fill="#1a1918" d="M 475.5,400.5 C 476.833,401.167 476.833,401.167 475.5,400.5 Z"/></g>
<g><path style="opacity:0.008" fill="#1d1d1c" d="M 479.5,401.5 C 480.833,402.167 480.833,402.167 479.5,401.5 Z"/></g>
<g><path style="opacity:0.014" fill="#1d1c1a" d="M 482.5,402.5 C 482.897,401.475 483.563,401.308 484.5,402C 483.906,402.464 483.239,402.631 482.5,402.5 Z"/></g>
<g><path style="opacity:0.004" fill="#1d1d1a" d="M 482.5,402.5 C 482.5,402.833 482.5,403.167 482.5,403.5C 481.83,403.019 481.83,402.685 482.5,402.5 Z"/></g>
<g><path style="opacity:0.004" fill="#1e1f1b" d="M 486.5,402.5 C 487.833,403.167 487.833,403.167 486.5,402.5 Z"/></g>
<g><path style="opacity:0.008" fill="#161816" d="M 494.5,403.5 C 495.833,404.167 495.833,404.167 494.5,403.5 Z"/></g>
<g><path style="opacity:0.008" fill="#171815" d="M 499.5,404.5 C 500.833,405.167 500.833,405.167 499.5,404.5 Z"/></g>
<g><path style="opacity:0.004" fill="#161916" d="M 511.5,408.5 C 512.833,409.167 512.833,409.167 511.5,408.5 Z"/></g>
<g><path style="opacity:0.007" fill="#161615" d="M 522.5,409.5 C 522.489,412.001 521.822,412.168 520.5,410C 521.094,409.536 521.761,409.369 522.5,409.5 Z"/></g>
<g><path style="opacity:0.004" fill="#151714" d="M 524.5,410.5 C 525.833,411.167 525.833,411.167 524.5,410.5 Z"/></g>
<g><path style="opacity:0.008" fill="#171713" d="M 525.5,415.5 C 526.833,416.167 526.833,416.167 525.5,415.5 Z"/></g>
<g><path style="opacity:0.004" fill="#2c2d2b" d="M 173.5,419.5 C 172.833,420.167 172.833,420.167 173.5,419.5 Z"/></g>
<g><path style="opacity:0.004" fill="#151817" d="M 560.5,421.5 C 559.833,420.167 559.833,420.167 560.5,421.5 Z"/></g>
<g><path style="opacity:0.012" fill="#302e2d" d="M 851.5,420.5 C 852.833,421.167 852.833,421.167 851.5,420.5 Z"/></g>
<g><path style="opacity:0.041" fill="#343434" d="M 209.5,421.5 C 218.5,421.5 227.5,421.5 236.5,421.5C 236.5,421.833 236.5,422.167 236.5,422.5C 228.097,422.54 219.93,422.874 212,423.5C 211.005,422.934 210.172,422.267 209.5,421.5 Z"/></g>
<g><path style="opacity:0.267" fill="#272828" d="M 236.5,422.5 C 236.5,422.167 236.5,421.833 236.5,421.5C 248.345,421.172 260.012,421.505 271.5,422.5C 259.981,422.779 248.315,422.779 236.5,422.5 Z"/></g>
<g><path style="opacity:0.004" fill="#161615" d="M 560.5,421.5 C 561.833,422.167 561.833,422.167 560.5,421.5 Z"/></g>
<g><path style="opacity:0.016" fill="#121512" d="M 542.5,423.5 C 543.833,424.167 543.833,424.167 542.5,423.5 Z"/></g>
<g><path style="opacity:0.004" fill="#161716" d="M 547.5,423.5 C 548.833,424.167 548.833,424.167 547.5,423.5 Z"/></g>
<g><path style="opacity:0.006" fill="#1e1c1d" d="M 306.5,426.5 C 306.897,425.475 307.563,425.308 308.5,426C 307.906,426.464 307.239,426.631 306.5,426.5 Z"/></g>
<g><path style="opacity:0.008" fill="#1e1e1e" d="M 312.5,427.5 C 312.897,426.475 313.563,426.308 314.5,427C 313.906,427.464 313.239,427.631 312.5,427.5 Z"/></g>
<g><path style="opacity:0.004" fill="#161817" d="M 578.5,426.5 C 579.833,427.167 579.833,427.167 578.5,426.5 Z"/></g>
<g><path style="opacity:0.008" fill="#2b2d29" d="M 849.5,426.5 C 850.833,427.167 850.833,427.167 849.5,426.5 Z"/></g>
<g><path style="opacity:0.004" fill="#161814" d="M 584.5,428.5 C 585.833,429.167 585.833,429.167 584.5,428.5 Z"/></g>
<g><path style="opacity:0.008" fill="#1c1d1c" d="M 317.5,429.5 C 318.833,430.167 318.833,430.167 317.5,429.5 Z"/></g>
<g><path style="opacity:0.004" fill="#191b17" d="M 569.5,434.5 C 570.833,435.167 570.833,435.167 569.5,434.5 Z"/></g>
<g><path style="opacity:0.008" fill="#181715" d="M 571.5,435.5 C 572.833,436.167 572.833,436.167 571.5,435.5 Z"/></g>
<g><path style="opacity:0.004" fill="#1d1c1b" d="M 343.5,436.5 C 344.833,437.167 344.833,437.167 343.5,436.5 Z"/></g>
<g><path style="opacity:0.004" fill="#161617" d="M 604.5,437.5 C 605.833,438.167 605.833,438.167 604.5,437.5 Z"/></g>
<g><path style="opacity:0.004" fill="#1c1e1c" d="M 348.5,438.5 C 347.833,439.167 347.833,439.167 348.5,438.5 Z"/></g>
<g><path style="opacity:0.018" fill="#161717" d="M 615.5,439.5 C 615.897,438.475 616.563,438.308 617.5,439C 616.906,439.464 616.239,439.631 615.5,439.5 Z"/></g>
<g><path style="opacity:0.004" fill="#161715" d="M 581.5,440.5 C 581.897,439.475 582.563,439.308 583.5,440C 582.906,440.464 582.239,440.631 581.5,440.5 Z"/></g>
<g><path style="opacity:0.004" fill="#151615" d="M 590.5,440.5 C 591.833,441.167 591.833,441.167 590.5,440.5 Z"/></g>
<g><path style="opacity:0.004" fill="#171717" d="M 625.5,441.5 C 626.833,442.167 626.833,442.167 625.5,441.5 Z"/></g>
<g><path style="opacity:0.008" fill="#171818" d="M 590.5,444.5 C 591.833,445.167 591.833,445.167 590.5,444.5 Z"/></g>
<g><path style="opacity:0.004" fill="#1a1818" d="M 635.5,444.5 C 635.631,445.239 635.464,445.906 635,446.5C 634.308,445.563 634.475,444.897 635.5,444.5 Z"/></g>
<g><path style="opacity:0.004" fill="#131516" d="M 598.5,447.5 C 599.833,448.167 599.833,448.167 598.5,447.5 Z"/></g>
<g><path style="opacity:0.004" fill="#1d1c1b" d="M 348.5,448.5 C 349.833,449.167 349.833,449.167 348.5,448.5 Z"/></g>
<g><path style="opacity:0.004" fill="#1a1917" d="M 648.5,449.5 C 648.5,449.833 648.5,450.167 648.5,450.5C 647.83,450.019 647.83,449.685 648.5,449.5 Z"/></g>
<g><path style="opacity:0.008" fill="#191a18" d="M 648.5,450.5 C 649.239,450.369 649.906,450.536 650.5,451C 649.563,451.692 648.897,451.525 648.5,450.5 Z"/></g>
<g><path style="opacity:0.004" fill="#2d2e2c" d="M 846.5,450.5 C 847.833,451.167 847.833,451.167 846.5,450.5 Z"/></g>
<g><path style="opacity:0.008" fill="#2d2e29" d="M 842.5,452.5 C 843.833,453.167 843.833,453.167 842.5,452.5 Z"/></g>
<g><path style="opacity:0.004" fill="#1f1f1f" d="M 320.5,455.5 C 321.833,456.167 321.833,456.167 320.5,455.5 Z"/></g>
<g><path style="opacity:0.004" fill="#201f1e" d="M 334.5,455.5 C 335.833,456.167 335.833,456.167 334.5,455.5 Z"/></g>
<g><path style="opacity:0.004" fill="#1b1d1a" d="M 340.5,455.5 C 341.833,456.167 341.833,456.167 340.5,455.5 Z"/></g>
<g><path style="opacity:0.008" fill="#191918" d="M 616.5,455.5 C 617.833,456.167 617.833,456.167 616.5,455.5 Z"/></g>
<g><path style="opacity:0.004" fill="#282b29" d="M 260.5,456.5 C 261.833,457.167 261.833,457.167 260.5,456.5 Z"/></g>
<g><path style="opacity:0.004" fill="#292b26" d="M 278.5,457.5 C 279.833,458.167 279.833,458.167 278.5,457.5 Z"/></g>
<g><path style="opacity:0.004" fill="#191c1b" d="M 668.5,457.5 C 667.833,458.167 667.833,458.167 668.5,457.5 Z"/></g>
<g><path style="opacity:0.018" fill="#41413f" d="M 255.5,460.5 C 212.833,460.5 170.167,460.5 127.5,460.5C 138.902,459.824 150.402,459.157 162,458.5C 165.491,458.903 168.991,459.236 172.5,459.5C 173.994,459.291 175.161,458.624 176,457.5C 178.724,458.776 181.724,459.442 185,459.5C 195.269,459.538 205.602,459.205 216,458.5C 229.265,459.158 242.431,459.825 255.5,460.5 Z"/></g>
<g><path style="opacity:0.02" fill="#3d3d3b" d="M 298.5,460.5 C 284.5,460.5 270.5,460.5 256.5,460.5C 261.567,459.812 266.733,459.145 272,458.5C 278.402,459.032 284.402,459.032 290,458.5C 292.939,459.128 295.772,459.795 298.5,460.5 Z"/></g>
<g><path style="opacity:0.004" fill="#1b1b17" d="M 619.5,460.5 C 620.833,461.167 620.833,461.167 619.5,460.5 Z"/></g>
<g><path style="opacity:0.004" fill="#1d1e1a" d="M 672.5,460.5 C 673.833,461.167 673.833,461.167 672.5,460.5 Z"/></g>
<g><path style="opacity:0.012" fill="#1d1d1b" d="M 678.5,462.5 C 678.103,463.525 677.437,463.692 676.5,463C 677.094,462.536 677.761,462.369 678.5,462.5 Z"/></g>
<g><path style="opacity:0.004" fill="#1b1d1b" d="M 629.5,468.5 C 630.833,469.167 630.833,469.167 629.5,468.5 Z"/></g>
<g><path style="opacity:0.004" fill="#1e1c1b" d="M 688.5,469.5 C 689.833,470.167 689.833,470.167 688.5,469.5 Z"/></g>
<g><path style="opacity:0.006" fill="#1b1b1b" d="M 637.5,472.5 C 637.897,471.475 638.563,471.308 639.5,472C 638.906,472.464 638.239,472.631 637.5,472.5 Z"/></g>
<g><path style="opacity:0.024" fill="#1c1e1b" d="M 696.5,472.5 C 696.5,472.833 696.5,473.167 696.5,473.5C 695.83,473.019 695.83,472.685 696.5,472.5 Z"/></g>
<g><path style="opacity:0.005" fill="#1e1d1c" d="M 696.5,473.5 C 697.833,474.5 697.833,475.5 696.5,476.5C 696.5,475.5 696.5,474.5 696.5,473.5 Z"/></g>
<g><path style="opacity:0.004" fill="#1a1b1a" d="M 696.5,476.5 C 695.833,477.167 695.833,477.167 696.5,476.5 Z"/></g>
<g><path style="opacity:0.008" fill="#1c1d1b" d="M 638.5,477.5 C 639.833,478.167 639.833,478.167 638.5,477.5 Z"/></g>
<g><path style="opacity:0.008" fill="#1b1d1c" d="M 701.5,477.5 C 702.833,478.167 702.833,478.167 701.5,477.5 Z"/></g>
<g><path style="opacity:0.004" fill="#2b2a2b" d="M 835.5,477.5 C 836.525,477.897 836.692,478.563 836,479.5C 835.536,478.906 835.369,478.239 835.5,477.5 Z"/></g>
<g><path style="opacity:0.004" fill="#1c1d1b" d="M 707.5,485.5 C 708.833,486.167 708.833,486.167 707.5,485.5 Z"/></g>
<g><path style="opacity:0.004" fill="#1f201c" d="M 712.5,488.5 C 713.833,489.167 713.833,489.167 712.5,488.5 Z"/></g>
<g><path style="opacity:0.004" fill="#1c1d1a" d="M 713.5,490.5 C 714.833,491.167 714.833,491.167 713.5,490.5 Z"/></g>
<g><path style="opacity:0.004" fill="#3a3a3a" d="M 111.5,491.5 C 112.833,492.167 112.833,492.167 111.5,491.5 Z"/></g>
<g><path style="opacity:0.008" fill="#3a3c39" d="M 115.5,491.5 C 114.833,492.167 114.833,492.167 115.5,491.5 Z"/></g>
<g><path style="opacity:0.004" fill="#1d1b1b" d="M 715.5,493.5 C 714.833,492.167 714.833,492.167 715.5,493.5 Z"/></g>
<g><path style="opacity:0.004" fill="#353735" d="M 117.5,493.5 C 116.833,494.167 116.833,494.167 117.5,493.5 Z"/></g>
<g><path style="opacity:0.008" fill="#201e1d" d="M 715.5,493.5 C 716.833,494.167 716.833,494.167 715.5,493.5 Z"/></g>
<g><path style="opacity:0.773" fill="#161515" d="M 124.5,495.5 C 221.668,495.167 318.668,495.501 415.5,496.5C 404.054,496.273 392.554,496.607 381,497.5C 295.402,496.835 209.902,496.168 124.5,495.5 Z"/></g>
<g><path style="opacity:0.004" fill="#282828" d="M 829.5,499.5 C 830.833,500.167 830.833,500.167 829.5,499.5 Z"/></g>
<g><path style="opacity:0.004" fill="#1f1e1e" d="M 417.5,500.5 C 418.833,501.167 418.833,501.167 417.5,500.5 Z"/></g>
<g><path style="opacity:0.008" fill="#1e1e1d" d="M 417.5,502.5 C 418.833,503.167 418.833,503.167 417.5,502.5 Z"/></g>
<g><path style="opacity:0.004" fill="#1e1f1d" d="M 415.5,503.5 C 416.525,503.897 416.692,504.563 416,505.5C 415.536,504.906 415.369,504.239 415.5,503.5 Z"/></g>
<g><path style="opacity:0.004" fill="#2b2c28" d="M 829.5,510.5 C 830.833,511.167 830.833,511.167 829.5,510.5 Z"/></g>
<g><path style="opacity:0.008" fill="#1a1d1e" d="M 712.5,520.5 C 711.833,519.167 711.833,519.167 712.5,520.5 Z"/></g>
<g><path style="opacity:0.008" fill="#1b1f1b" d="M 629.5,520.5 C 630.833,521.167 630.833,521.167 629.5,520.5 Z"/></g>
<g><path style="opacity:0.008" fill="#1a191a" d="M 426.5,523.5 C 425.833,524.167 425.833,524.167 426.5,523.5 Z"/></g>
<g><path style="opacity:0.008" fill="#1c1d1b" d="M 424.5,527.5 C 425.833,528.167 425.833,528.167 424.5,527.5 Z"/></g>
<g><path style="opacity:0.004" fill="#1c1d1c" d="M 390.5,528.5 C 391.833,529.167 391.833,529.167 390.5,528.5 Z"/></g>
<g><path style="opacity:0.004" fill="#1b1e1b" d="M 620.5,528.5 C 621.833,529.167 621.833,529.167 620.5,528.5 Z"/></g>
<g><path style="opacity:0.008" fill="#1d1e1c" d="M 424.5,529.5 C 425.833,530.167 425.833,530.167 424.5,529.5 Z"/></g>
<g><path style="opacity:0.004" fill="#211f1f" d="M 276.5,530.5 C 277.833,531.167 277.833,531.167 276.5,530.5 Z"/></g>
<g><path style="opacity:0.004" fill="#1f201d" d="M 336.5,530.5 C 337.833,531.167 337.833,531.167 336.5,530.5 Z"/></g>
<g><path style="opacity:0.008" fill="#1c1f1c" d="M 424.5,530.5 C 423.833,531.167 423.833,531.167 424.5,530.5 Z"/></g>
<g><path style="opacity:0.004" fill="#232423" d="M 235.5,531.5 C 236.833,532.167 236.833,532.167 235.5,531.5 Z"/></g>
<g><path style="opacity:0.004" fill="#232322" d="M 291.5,531.5 C 292.833,532.167 292.833,532.167 291.5,531.5 Z"/></g>
<g><path style="opacity:0.004" fill="#222421" d="M 363.5,531.5 C 364.833,532.167 364.833,532.167 363.5,531.5 Z"/></g>
<g><path style="opacity:0.004" fill="#1e1e1c" d="M 411.5,531.5 C 412.833,532.167 412.833,532.167 411.5,531.5 Z"/></g>
<g><path style="opacity:0.012" fill="#191c19" d="M 612.5,531.5 C 613.833,532.167 613.833,532.167 612.5,531.5 Z"/></g>
<g><path style="opacity:0.004" fill="#252425" d="M 222.5,536.5 C 221.833,535.167 221.833,535.167 222.5,536.5 Z"/></g>
<g><path style="opacity:0.016" fill="#252722" d="M 222.5,536.5 C 223.167,536.5 223.5,536.833 223.5,537.5C 223.167,537.167 222.833,536.833 222.5,536.5 Z"/></g>
<g><path style="opacity:0.008" fill="#1c1c1b" d="M 604.5,536.5 C 605.833,537.167 605.833,537.167 604.5,536.5 Z"/></g>
<g><path style="opacity:0.004" fill="#171a17" d="M 691.5,536.5 C 692.833,537.167 692.833,537.167 691.5,536.5 Z"/></g>
<g><path style="opacity:0.008" fill="#181918" d="M 691.5,537.5 C 691.103,538.525 690.437,538.692 689.5,538C 690.094,537.536 690.761,537.369 691.5,537.5 Z"/></g>
<g><path style="opacity:0.008" fill="#181b18" d="M 694.5,538.5 C 693.833,537.167 693.833,537.167 694.5,538.5 Z"/></g>
<g><path style="opacity:0.004" fill="#1d1c1c" d="M 598.5,540.5 C 599.833,541.167 599.833,541.167 598.5,540.5 Z"/></g>
<g><path style="opacity:0.012" fill="#171a18" d="M 684.5,543.5 C 685.833,544.167 685.833,544.167 684.5,543.5 Z"/></g>
<g><path style="opacity:0.004" fill="#232625" d="M 216.5,544.5 C 217.833,545.167 217.833,545.167 216.5,544.5 Z"/></g>
<g><path style="opacity:0.012" fill="#1b1c1a" d="M 672.5,552.5 C 671.833,551.167 671.833,551.167 672.5,552.5 Z"/></g>
<g><path style="opacity:0.008" fill="#262526" d="M 215.5,553.5 C 216.525,553.897 216.692,554.563 216,555.5C 215.536,554.906 215.369,554.239 215.5,553.5 Z"/></g>
<g><path style="opacity:0.004" fill="#1e1e1b" d="M 663.5,554.5 C 664.833,555.167 664.833,555.167 663.5,554.5 Z"/></g>
<g><path style="opacity:0.016" fill="#1c1e1d" d="M 665.5,554.5 C 666.833,555.167 666.833,555.167 665.5,554.5 Z"/></g>
<g><path style="opacity:0.004" fill="#1b1b1a" d="M 550.5,558.5 C 551.833,559.167 551.833,559.167 550.5,558.5 Z"/></g>
<g><path style="opacity:0.004" fill="#2b2e2c" d="M 812.5,558.5 C 813.833,559.167 813.833,559.167 812.5,558.5 Z"/></g>
<g><path style="opacity:0.004" fill="#1b1b1b" d="M 653.5,559.5 C 654.833,560.167 654.833,560.167 653.5,559.5 Z"/></g>
<g><path style="opacity:0.008" fill="#1f1f1d" d="M 656.5,560.5 C 655.833,559.167 655.833,559.167 656.5,560.5 Z"/></g>
<g><path style="opacity:0.004" fill="#262924" d="M 216.5,564.5 C 217.833,565.167 217.833,565.167 216.5,564.5 Z"/></g>
<g><path style="opacity:0.008" fill="#2d2d29" d="M 811.5,564.5 C 812.833,565.167 812.833,565.167 811.5,564.5 Z"/></g>
<g><path style="opacity:0.004" fill="#1b1b1a" d="M 539.5,565.5 C 540.833,566.167 540.833,566.167 539.5,565.5 Z"/></g>
<g><path style="opacity:0.004" fill="#1a1e1c" d="M 525.5,566.5 C 526.833,567.167 526.833,567.167 525.5,566.5 Z"/></g>
<g><path style="opacity:0.004" fill="#232623" d="M 285.5,570.5 C 286.833,571.167 286.833,571.167 285.5,570.5 Z"/></g>
<g><path style="opacity:0.004" fill="#242422" d="M 303.5,570.5 C 304.833,571.167 304.833,571.167 303.5,570.5 Z"/></g>
<g><path style="opacity:0.004" fill="#20201d" d="M 325.5,570.5 C 326.833,571.167 326.833,571.167 325.5,570.5 Z"/></g>
<g><path style="opacity:0.008" fill="#1e201e" d="M 329.5,570.5 C 330.833,571.167 330.833,571.167 329.5,570.5 Z"/></g>
<g><path style="opacity:0.012" fill="#1c1d1d" d="M 332.5,570.5 C 333.833,571.167 333.833,571.167 332.5,570.5 Z"/></g>
<g><path style="opacity:0.012" fill="#1e1e1c" d="M 334.5,570.5 C 335.833,571.167 335.833,571.167 334.5,570.5 Z"/></g>
<g><path style="opacity:0.004" fill="#20201d" d="M 336.5,571.5 C 336.897,570.475 337.563,570.308 338.5,571C 337.906,571.464 337.239,571.631 336.5,571.5 Z"/></g>
<g><path style="opacity:0.004" fill="#1f201d" d="M 320.5,572.5 C 321.833,573.167 321.833,573.167 320.5,572.5 Z"/></g>
<g><path style="opacity:0.012" fill="#1d1c1a" d="M 507.5,572.5 C 508.833,573.167 508.833,573.167 507.5,572.5 Z"/></g>
<g><path style="opacity:0.004" fill="#2c2b29" d="M 808.5,572.5 C 809.833,573.167 809.833,573.167 808.5,572.5 Z"/></g>
<g><path style="opacity:0.004" fill="#252522" d="M 259.5,573.5 C 260.833,574.167 260.833,574.167 259.5,573.5 Z"/></g>
<g><path style="opacity:0.012" fill="#1d1d1e" d="M 352.5,574.5 C 353.833,575.167 353.833,575.167 352.5,574.5 Z"/></g>
<g><path style="opacity:0.004" fill="#1c1c19" d="M 502.5,574.5 C 503.833,575.167 503.833,575.167 502.5,574.5 Z"/></g>
<g><path style="opacity:0.012" fill="#1e1e1f" d="M 620.5,575.5 C 621.833,576.167 621.833,576.167 620.5,575.5 Z"/></g>
<g><path style="opacity:0.004" fill="#201f20" d="M 617.5,577.5 C 618.833,578.167 618.833,578.167 617.5,577.5 Z"/></g>
<g><path style="opacity:0.004" fill="#1b1a1a" d="M 362.5,580.5 C 361.833,581.167 361.833,581.167 362.5,580.5 Z"/></g>
<g><path style="opacity:0.012" fill="#181a14" d="M 485.5,581.5 C 486.833,582.167 486.833,582.167 485.5,581.5 Z"/></g>
<g><path style="opacity:0.004" fill="#222123" d="M 607.5,583.5 C 608.833,584.167 608.833,584.167 607.5,583.5 Z"/></g>
<g><path style="opacity:0.004" fill="#2d2f2d" d="M 805.5,583.5 C 806.833,584.167 806.833,584.167 805.5,583.5 Z"/></g>
<g><path style="opacity:0.004" fill="#191918" d="M 468.5,585.5 C 469.167,585.5 469.5,585.833 469.5,586.5C 469.167,586.167 468.833,585.833 468.5,585.5 Z"/></g>
<g><path style="opacity:0.008" fill="#181818" d="M 465.5,586.5 C 466.239,586.369 466.906,586.536 467.5,587C 466.563,587.692 465.897,587.525 465.5,586.5 Z"/></g>
<g><path style="opacity:0.006" fill="#1b1919" d="M 469.5,586.5 C 470.525,586.897 470.692,587.563 470,588.5C 469.536,587.906 469.369,587.239 469.5,586.5 Z"/></g>
<g><path style="opacity:0.004" fill="#2f312e" d="M 804.5,586.5 C 805.833,587.167 805.833,587.167 804.5,586.5 Z"/></g>
<g><path style="opacity:0.004" fill="#1a1a17" d="M 462.5,588.5 C 463.833,589.167 463.833,589.167 462.5,588.5 Z"/></g>
<g><path style="opacity:0.008" fill="#191a18" d="M 467.5,589.5 C 468.833,590.167 468.833,590.167 467.5,589.5 Z"/></g>
<g><path style="opacity:0.008" fill="#1b1918" d="M 440.5,596.5 C 441.833,597.167 441.833,597.167 440.5,596.5 Z"/></g>
<g><path style="opacity:0.004" fill="#1b1c1b" d="M 352.5,601.5 C 353.833,602.167 353.833,602.167 352.5,601.5 Z"/></g>
<g><path style="opacity:0.008" fill="#191a18" d="M 425.5,603.5 C 426.833,604.167 426.833,604.167 425.5,603.5 Z"/></g>
<g><path style="opacity:0.004" fill="#262725" d="M 608.5,604.5 C 609.833,605.167 609.833,605.167 608.5,604.5 Z"/></g>
<g><path style="opacity:0.004" fill="#171917" d="M 426.5,605.5 C 427.833,606.167 427.833,606.167 426.5,605.5 Z"/></g>
<g><path style="opacity:0.931" fill="#191918" d="M 769.5,608.5 C 773.634,607.515 777.968,607.182 782.5,607.5C 780.444,608.216 778.277,608.883 776,609.5C 773.928,609.742 771.761,609.409 769.5,608.5 Z"/></g>
<g><path style="opacity:0.004" fill="#1c1d1c" d="M 348.5,610.5 C 347.833,609.167 347.833,609.167 348.5,610.5 Z"/></g>
<g><path style="opacity:0.004" fill="#21221e" d="M 672.5,610.5 C 673.833,611.167 673.833,611.167 672.5,610.5 Z"/></g>
<g><path style="opacity:0.004" fill="#211f1e" d="M 684.5,610.5 C 685.833,611.167 685.833,611.167 684.5,610.5 Z"/></g>
<g><path style="opacity:0.004" fill="#20211c" d="M 689.5,610.5 C 690.833,611.167 690.833,611.167 689.5,610.5 Z"/></g>
<g><path style="opacity:0.004" fill="#21211e" d="M 703.5,610.5 C 704.833,611.167 704.833,611.167 703.5,610.5 Z"/></g>
<g><path style="opacity:0.004" fill="#1a1b1a" d="M 408.5,611.5 C 409.833,612.167 409.833,612.167 408.5,611.5 Z"/></g>
<g><path style="opacity:0.004" fill="#21201e" d="M 686.5,612.5 C 687.833,613.167 687.833,613.167 686.5,612.5 Z"/></g>
<g><path style="opacity:0.004" fill="#232320" d="M 760.5,612.5 C 761.833,613.167 761.833,613.167 760.5,612.5 Z"/></g>
<g><path style="opacity:0.004" fill="#171a18" d="M 411.5,613.5 C 412.833,614.167 412.833,614.167 411.5,613.5 Z"/></g>
<g><path style="opacity:0.004" fill="#202120" d="M 699.5,613.5 C 700.833,614.167 700.833,614.167 699.5,613.5 Z"/></g>
<g><path style="opacity:0.004" fill="#202422" d="M 755.5,613.5 C 756.833,614.167 756.833,614.167 755.5,613.5 Z"/></g>
<g><path style="opacity:0.008" fill="#181a19" d="M 403.5,614.5 C 404.833,615.167 404.833,615.167 403.5,614.5 Z"/></g>
<g><path style="opacity:0.004" fill="#202220" d="M 679.5,614.5 C 680.833,615.167 680.833,615.167 679.5,614.5 Z"/></g>
<g><path style="opacity:0.004" fill="#21221f" d="M 749.5,614.5 C 750.833,615.167 750.833,615.167 749.5,614.5 Z"/></g>
<g><path style="opacity:0.004" fill="#1a1e1c" d="M 341.5,617.5 C 340.833,616.167 340.833,616.167 341.5,617.5 Z"/></g>
<g><path style="opacity:0.004" fill="#1d1c1b" d="M 338.5,617.5 C 339.833,618.167 339.833,618.167 338.5,617.5 Z"/></g>
<g><path style="opacity:0.008" fill="#1e1d1b" d="M 336.5,618.5 C 337.833,619.167 337.833,619.167 336.5,618.5 Z"/></g>
<g><path style="opacity:0.004" fill="#181816" d="M 397.5,618.5 C 398.833,619.167 398.833,619.167 397.5,618.5 Z"/></g>
<g><path style="opacity:0.027" fill="#1b1d1a" d="M 336.5,624.5 C 335.833,623.167 335.833,623.167 336.5,624.5 Z"/></g>
<g><path style="opacity:0.004" fill="#211f20" d="M 483.5,647.5 C 484.833,648.167 484.833,648.167 483.5,647.5 Z"/></g>
<g><path style="opacity:0.004" fill="#222121" d="M 752.5,647.5 C 753.833,648.167 753.833,648.167 752.5,647.5 Z"/></g>
<g><path style="opacity:0.004" fill="#212220" d="M 460.5,648.5 C 461.833,649.167 461.833,649.167 460.5,648.5 Z"/></g>
<g><path style="opacity:0.004" fill="#202021" d="M 473.5,648.5 C 474.833,649.167 474.833,649.167 473.5,648.5 Z"/></g>
<g><path style="opacity:0.008" fill="#20201e" d="M 518.5,648.5 C 519.833,649.167 519.833,649.167 518.5,648.5 Z"/></g>
<g><path style="opacity:0.004" fill="#1f2020" d="M 542.5,649.5 C 543.251,648.427 544.251,648.26 545.5,649C 544.552,649.483 543.552,649.649 542.5,649.5 Z"/></g>
<g><path style="opacity:0.008" fill="#20211f" d="M 550.5,648.5 C 551.833,649.167 551.833,649.167 550.5,648.5 Z"/></g>
<g><path style="opacity:0.004" fill="#202020" d="M 567.5,648.5 C 568.833,649.167 568.833,649.167 567.5,648.5 Z"/></g>
<g><path style="opacity:0.004" fill="#1e2120" d="M 575.5,648.5 C 576.833,649.167 576.833,649.167 575.5,648.5 Z"/></g>
<g><path style="opacity:0.004" fill="#222020" d="M 577.5,648.5 C 578.833,649.167 578.833,649.167 577.5,648.5 Z"/></g>
<g><path style="opacity:0.006" fill="#212221" d="M 579.5,649.5 C 579.897,648.475 580.563,648.308 581.5,649C 580.906,649.464 580.239,649.631 579.5,649.5 Z"/></g>
<g><path style="opacity:0.004" fill="#232320" d="M 582.5,648.5 C 583.833,649.167 583.833,649.167 582.5,648.5 Z"/></g>
<g><path style="opacity:0.004" fill="#20201e" d="M 591.5,648.5 C 592.833,649.167 592.833,649.167 591.5,648.5 Z"/></g>
<g><path style="opacity:0.004" fill="#232221" d="M 593.5,648.5 C 594.833,649.167 594.833,649.167 593.5,648.5 Z"/></g>
<g><path style="opacity:0.008" fill="#21221d" d="M 595.5,648.5 C 596.833,649.167 596.833,649.167 595.5,648.5 Z"/></g>
<g><path style="opacity:0.004" fill="#222120" d="M 601.5,649.5 C 601.897,648.475 602.563,648.308 603.5,649C 602.906,649.464 602.239,649.631 601.5,649.5 Z"/></g>
<g><path style="opacity:0.004" fill="#20211e" d="M 604.5,648.5 C 605.833,649.167 605.833,649.167 604.5,648.5 Z"/></g>
<g><path style="opacity:0.008" fill="#202120" d="M 607.5,648.5 C 608.833,649.167 608.833,649.167 607.5,648.5 Z"/></g>
<g><path style="opacity:0.008" fill="#212122" d="M 609.5,648.5 C 610.833,649.167 610.833,649.167 609.5,648.5 Z"/></g>
<g><path style="opacity:0.008" fill="#21221f" d="M 614.5,648.5 C 615.833,649.167 615.833,649.167 614.5,648.5 Z"/></g>
<g><path style="opacity:0.004" fill="#202121" d="M 617.5,648.5 C 618.833,649.167 618.833,649.167 617.5,648.5 Z"/></g>
<g><path style="opacity:0.008" fill="#1f2020" d="M 620.5,648.5 C 621.833,649.167 621.833,649.167 620.5,648.5 Z"/></g>
<g><path style="opacity:0.004" fill="#212121" d="M 623.5,648.5 C 624.833,649.167 624.833,649.167 623.5,648.5 Z"/></g>
<g><path style="opacity:0.004" fill="#222121" d="M 625.5,649.5 C 625.897,648.475 626.563,648.308 627.5,649C 626.906,649.464 626.239,649.631 625.5,649.5 Z"/></g>
<g><path style="opacity:0.016" fill="#22221f" d="M 631.5,648.5 C 632.833,649.167 632.833,649.167 631.5,648.5 Z"/></g>
<g><path style="opacity:0.012" fill="#212020" d="M 639.5,649.5 C 640.251,648.427 641.251,648.26 642.5,649C 641.552,649.483 640.552,649.649 639.5,649.5 Z"/></g>
<g><path style="opacity:0.008" fill="#21201f" d="M 646.5,649.5 C 646.897,648.475 647.563,648.308 648.5,649C 647.906,649.464 647.239,649.631 646.5,649.5 Z"/></g>
<g><path style="opacity:0.004" fill="#1f1f1d" d="M 651.5,649.5 C 651.897,648.475 652.563,648.308 653.5,649C 652.906,649.464 652.239,649.631 651.5,649.5 Z"/></g>
<g><path style="opacity:0.008" fill="#1f1f1d" d="M 654.5,648.5 C 655.833,649.167 655.833,649.167 654.5,648.5 Z"/></g>
<g><path style="opacity:0.004" fill="#1e1f1d" d="M 657.5,649.5 C 658.601,648.402 659.934,648.235 661.5,649C 660.207,649.49 658.873,649.657 657.5,649.5 Z"/></g>
<g><path style="opacity:0.02" fill="#21201e" d="M 663.5,648.5 C 664.833,649.167 664.833,649.167 663.5,648.5 Z"/></g>
<g><path style="opacity:0.004" fill="#201e1d" d="M 668.5,648.5 C 669.833,649.167 669.833,649.167 668.5,648.5 Z"/></g>
<g><path style="opacity:0.008" fill="#1e211d" d="M 679.5,648.5 C 680.833,649.167 680.833,649.167 679.5,648.5 Z"/></g>
<g><path style="opacity:0.006" fill="#1e1e1c" d="M 683.5,649.5 C 683.897,648.475 684.563,648.308 685.5,649C 684.906,649.464 684.239,649.631 683.5,649.5 Z"/></g>
<g><path style="opacity:0.012" fill="#222020" d="M 688.5,649.5 C 689.251,648.427 690.251,648.26 691.5,649C 690.552,649.483 689.552,649.649 688.5,649.5 Z"/></g>
<g><path style="opacity:0.004" fill="#201c1e" d="M 692.5,648.5 C 693.833,649.167 693.833,649.167 692.5,648.5 Z"/></g>
<g><path style="opacity:0.008" fill="#21221f" d="M 695.5,648.5 C 696.833,649.167 696.833,649.167 695.5,648.5 Z"/></g>
<g><path style="opacity:0.004" fill="#1f2120" d="M 698.5,648.5 C 699.833,649.167 699.833,649.167 698.5,648.5 Z"/></g>
<g><path style="opacity:0.012" fill="#1f201d" d="M 700.5,648.5 C 701.833,649.167 701.833,649.167 700.5,648.5 Z"/></g>
<g><path style="opacity:0.008" fill="#20201d" d="M 703.5,648.5 C 704.833,649.167 704.833,649.167 703.5,648.5 Z"/></g>
<g><path style="opacity:0.012" fill="#1f201e" d="M 708.5,648.5 C 709.833,649.167 709.833,649.167 708.5,648.5 Z"/></g>
<g><path style="opacity:0.004" fill="#20201e" d="M 710.5,649.5 C 710.897,648.475 711.563,648.308 712.5,649C 711.906,649.464 711.239,649.631 710.5,649.5 Z"/></g>
<g><path style="opacity:0.004" fill="#20211d" d="M 713.5,649.5 C 713.897,648.475 714.563,648.308 715.5,649C 714.906,649.464 714.239,649.631 713.5,649.5 Z"/></g>
<g><path style="opacity:0.008" fill="#211f1d" d="M 717.5,648.5 C 718.833,649.167 718.833,649.167 717.5,648.5 Z"/></g>
<g><path style="opacity:0.008" fill="#20201d" d="M 721.5,648.5 C 722.833,649.167 722.833,649.167 721.5,648.5 Z"/></g>
<g><path style="opacity:0.004" fill="#212220" d="M 727.5,649.5 C 727.897,648.475 728.563,648.308 729.5,649C 728.906,649.464 728.239,649.631 727.5,649.5 Z"/></g>
<g><path style="opacity:0.004" fill="#22221f" d="M 734.5,648.5 C 735.833,649.167 735.833,649.167 734.5,648.5 Z"/></g>
<g><path style="opacity:0.004" fill="#222521" d="M 742.5,648.5 C 743.833,649.167 743.833,649.167 742.5,648.5 Z"/></g>
<g><path style="opacity:0.004" fill="#22241f" d="M 750.5,648.5 C 751.833,649.167 751.833,649.167 750.5,648.5 Z"/></g>
<g><path style="opacity:0.004" fill="#212120" d="M 754.5,648.5 C 755.833,649.167 755.833,649.167 754.5,648.5 Z"/></g>
<g><path style="opacity:0.008" fill="#282a26" d="M 774.5,649.5 C 775.833,650.167 775.833,650.167 774.5,649.5 Z"/></g>
<g><path style="opacity:0.004" fill="#2b2a2b" d="M 781.5,656.5 C 781.897,655.475 782.563,655.308 783.5,656C 782.906,656.464 782.239,656.631 781.5,656.5 Z"/></g>
<g><path style="opacity:0.008" fill="#222021" d="M 329.5,660.5 C 328.833,659.167 328.833,659.167 329.5,660.5 Z"/></g>
<g><path style="opacity:0.004" fill="#1f1e1f" d="M 329.5,660.5 C 329.833,660.5 330.167,660.5 330.5,660.5C 330.315,661.17 329.981,661.17 329.5,660.5 Z"/></g>
<g><path style="opacity:0.012" fill="#232421" d="M 330.5,663.5 C 329.833,662.167 329.833,662.167 330.5,663.5 Z"/></g>
<g><path style="opacity:0.004" fill="#212221" d="M 330.5,663.5 C 330.833,663.5 331.167,663.5 331.5,663.5C 331.315,664.17 330.981,664.17 330.5,663.5 Z"/></g>
<g><path style="opacity:0.004" fill="#202120" d="M 327.5,666.5 C 328.833,667.167 328.833,667.167 327.5,666.5 Z"/></g>
<g><path style="opacity:0.008" fill="#242522" d="M 333.5,666.5 C 332.833,667.167 332.833,667.167 333.5,666.5 Z"/></g>
<g><path style="opacity:0.004" fill="#202321" d="M 331.5,669.5 C 332.833,670.167 332.833,670.167 331.5,669.5 Z"/></g>
<g><path style="opacity:0.004" fill="#222421" d="M 335.5,672.5 C 336.833,673.167 336.833,673.167 335.5,672.5 Z"/></g>
<g><path style="opacity:0.008" fill="#232521" d="M 336.5,675.5 C 335.833,674.167 335.833,674.167 336.5,675.5 Z"/></g>
<g><path style="opacity:0.008" fill="#22241f" d="M 337.5,674.5 C 338.833,675.167 338.833,675.167 337.5,674.5 Z"/></g>
<g><path style="opacity:0.012" fill="#232423" d="M 336.5,675.5 C 336.833,675.5 337.167,675.5 337.5,675.5C 337.315,676.17 336.981,676.17 336.5,675.5 Z"/></g>
<g><path style="opacity:0.004" fill="#242622" d="M 349.5,682.5 C 350.833,683.167 350.833,683.167 349.5,682.5 Z"/></g>
<g><path style="opacity:0.759" fill="#111111" d="M 360.5,684.5 C 379.503,684.333 398.503,684.5 417.5,685C 416.922,686.417 415.922,687.25 414.5,687.5C 414.611,686.883 414.944,686.383 415.5,686C 396.995,685.832 378.662,685.332 360.5,684.5 Z"/></g>
<g><path style="opacity:0.195" fill="#262624" d="M 654.5,686.5 C 603.167,685.167 551.833,685.167 500.5,686.5C 499.711,686.217 499.044,685.717 498.5,685C 551.167,684.333 603.833,684.333 656.5,685C 655.956,685.717 655.289,686.217 654.5,686.5 Z"/></g>
<g><path style="opacity:0.146" fill="#2e2e2d" d="M 769.5,684.5 C 759.5,685.167 749.5,685.833 739.5,686.5C 738.711,686.217 738.044,685.717 737.5,685C 748.161,684.5 758.828,684.333 769.5,684.5 Z"/></g>
<g><path style="opacity:0.004" fill="#222322" d="M 363.5,686.5 C 364.833,687.167 364.833,687.167 363.5,686.5 Z"/></g>
<g><path style="opacity:0.004" fill="#1b1d1c" d="M 381.5,686.5 C 382.833,687.167 382.833,687.167 381.5,686.5 Z"/></g>
<g><path style="opacity:0.004" fill="#1b1b1b" d="M 392.5,686.5 C 393.833,687.167 393.833,687.167 392.5,686.5 Z"/></g>
<g><path style="opacity:0.012" fill="#191c1b" d="M 397.5,686.5 C 398.833,687.167 398.833,687.167 397.5,686.5 Z"/></g>
<g><path style="opacity:0.008" fill="#1a1919" d="M 403.5,687.5 C 403.897,686.475 404.563,686.308 405.5,687C 404.906,687.464 404.239,687.631 403.5,687.5 Z"/></g>
<g><path style="opacity:0.012" fill="#191a17" d="M 411.5,686.5 C 412.833,687.167 412.833,687.167 411.5,686.5 Z"/></g>
<g><path style="opacity:0.004" fill="#141514" d="M 503.5,686.5 C 504.833,687.167 504.833,687.167 503.5,686.5 Z"/></g>
<g><path style="opacity:0.008" fill="#171716" d="M 516.5,686.5 C 517.833,687.167 517.833,687.167 516.5,686.5 Z"/></g>
<g><path style="opacity:0.008" fill="#171718" d="M 519.5,687.5 C 519.897,686.475 520.563,686.308 521.5,687C 520.906,687.464 520.239,687.631 519.5,687.5 Z"/></g>
<g><path style="opacity:0.004" fill="#181819" d="M 523.5,687.5 C 523.897,686.475 524.563,686.308 525.5,687C 524.906,687.464 524.239,687.631 523.5,687.5 Z"/></g>
<g><path style="opacity:0.004" fill="#1a1919" d="M 527.5,687.5 C 528.251,686.427 529.251,686.26 530.5,687C 529.552,687.483 528.552,687.649 527.5,687.5 Z"/></g>
<g><path style="opacity:0.004" fill="#191918" d="M 536.5,686.5 C 537.833,687.167 537.833,687.167 536.5,686.5 Z"/></g>
<g><path style="opacity:0.004" fill="#1a1a1b" d="M 545.5,686.5 C 546.833,687.167 546.833,687.167 545.5,686.5 Z"/></g>
<g><path style="opacity:0.008" fill="#1b1c1c" d="M 551.5,686.5 C 552.833,687.167 552.833,687.167 551.5,686.5 Z"/></g>
<g><path style="opacity:0.004" fill="#1c1c1d" d="M 553.5,686.5 C 554.833,687.167 554.833,687.167 553.5,686.5 Z"/></g>
<g><path style="opacity:0.008" fill="#1d1c1c" d="M 556.5,686.5 C 557.833,687.167 557.833,687.167 556.5,686.5 Z"/></g>
<g><path style="opacity:0.004" fill="#1c1c1c" d="M 558.5,687.5 C 558.897,686.475 559.563,686.308 560.5,687C 559.906,687.464 559.239,687.631 558.5,687.5 Z"/></g>
<g><path style="opacity:0.004" fill="#1e1d1e" d="M 561.5,686.5 C 562.833,687.167 562.833,687.167 561.5,686.5 Z"/></g>
<g><path style="opacity:0.004" fill="#1a1b1d" d="M 567.5,686.5 C 568.833,687.167 568.833,687.167 567.5,686.5 Z"/></g>
<g><path style="opacity:0.016" fill="#1d1f1e" d="M 575.5,686.5 C 576.833,687.167 576.833,687.167 575.5,686.5 Z"/></g>
<g><path style="opacity:0.004" fill="#20201e" d="M 579.5,687.5 C 579.897,686.475 580.563,686.308 581.5,687C 580.906,687.464 580.239,687.631 579.5,687.5 Z"/></g>
<g><path style="opacity:0.006" fill="#1d1e1d" d="M 583.5,687.5 C 584.251,686.427 585.251,686.26 586.5,687C 585.552,687.483 584.552,687.649 583.5,687.5 Z"/></g>
<g><path style="opacity:0.004" fill="#1f1f1d" d="M 587.5,686.5 C 588.833,687.167 588.833,687.167 587.5,686.5 Z"/></g>
<g><path style="opacity:0.004" fill="#201f1f" d="M 591.5,687.5 C 591.897,686.475 592.563,686.308 593.5,687C 592.906,687.464 592.239,687.631 591.5,687.5 Z"/></g>
<g><path style="opacity:0.012" fill="#1f211f" d="M 594.5,686.5 C 595.833,687.167 595.833,687.167 594.5,686.5 Z"/></g>
<g><path style="opacity:0.008" fill="#20211e" d="M 596.5,686.5 C 597.833,687.167 597.833,687.167 596.5,686.5 Z"/></g>
<g><path style="opacity:0.008" fill="#1c1e1c" d="M 600.5,687.5 C 600.897,686.475 601.563,686.308 602.5,687C 601.906,687.464 601.239,687.631 600.5,687.5 Z"/></g>
<g><path style="opacity:0.007" fill="#1d1d1e" d="M 603.5,687.5 C 604.251,686.427 605.251,686.26 606.5,687C 605.552,687.483 604.552,687.649 603.5,687.5 Z"/></g>
<g><path style="opacity:0.009" fill="#1d1c1c" d="M 607.5,687.5 C 608.251,686.427 609.251,686.26 610.5,687C 609.552,687.483 608.552,687.649 607.5,687.5 Z"/></g>
<g><path style="opacity:0.004" fill="#1e1d1c" d="M 611.5,687.5 C 611.897,686.475 612.563,686.308 613.5,687C 612.906,687.464 612.239,687.631 611.5,687.5 Z"/></g>
<g><path style="opacity:0.007" fill="#1e1c1b" d="M 615.5,687.5 C 616.251,686.427 617.251,686.26 618.5,687C 617.552,687.483 616.552,687.649 615.5,687.5 Z"/></g>
<g><path style="opacity:0.004" fill="#1c1a1b" d="M 623.5,687.5 C 623.897,686.475 624.563,686.308 625.5,687C 624.906,687.464 624.239,687.631 623.5,687.5 Z"/></g>
<g><path style="opacity:0.004" fill="#1c1b1b" d="M 627.5,686.5 C 628.833,687.167 628.833,687.167 627.5,686.5 Z"/></g>
<g><path style="opacity:0.008" fill="#181a1a" d="M 629.5,686.5 C 630.833,687.167 630.833,687.167 629.5,686.5 Z"/></g>
<g><path style="opacity:0.01" fill="#1c1c1c" d="M 631.5,687.5 C 632.251,686.427 633.251,686.26 634.5,687C 633.552,687.483 632.552,687.649 631.5,687.5 Z"/></g>
<g><path style="opacity:0.006" fill="#1b1b1b" d="M 635.5,687.5 C 635.897,686.475 636.563,686.308 637.5,687C 636.906,687.464 636.239,687.631 635.5,687.5 Z"/></g>
<g><path style="opacity:0.004" fill="#191918" d="M 639.5,686.5 C 640.833,687.167 640.833,687.167 639.5,686.5 Z"/></g>
<g><path style="opacity:0.012" fill="#181b19" d="M 647.5,687.5 C 647.897,686.475 648.563,686.308 649.5,687C 648.906,687.464 648.239,687.631 647.5,687.5 Z"/></g>
<g><path style="opacity:0.004" fill="#1a1c1c" d="M 743.5,686.5 C 744.833,687.167 744.833,687.167 743.5,686.5 Z"/></g>
<g><path style="opacity:0.004" fill="#1c1d1c" d="M 745.5,686.5 C 746.833,687.167 746.833,687.167 745.5,686.5 Z"/></g>
<g><path style="opacity:0.004" fill="#1c1d1c" d="M 747.5,686.5 C 748.833,687.167 748.833,687.167 747.5,686.5 Z"/></g>
<g><path style="opacity:0.008" fill="#1e1f1e" d="M 751.5,686.5 C 752.833,687.167 752.833,687.167 751.5,686.5 Z"/></g>
<g><path style="opacity:0.004" fill="#1f1e1f" d="M 753.5,686.5 C 754.833,687.167 754.833,687.167 753.5,686.5 Z"/></g>
<g><path style="opacity:0.008" fill="#1e201d" d="M 756.5,686.5 C 757.833,687.167 757.833,687.167 756.5,686.5 Z"/></g>
<g><path style="opacity:0.004" fill="#161816" d="M 504.5,689.5 C 505.833,690.167 505.833,690.167 504.5,689.5 Z"/></g>
<g><path style="opacity:0.012" fill="#141615" d="M 512.5,703.5 C 513.833,704.167 513.833,704.167 512.5,703.5 Z"/></g>
<g><path style="opacity:0.004" fill="#201f1e" d="M 400.5,706.5 C 401.525,706.897 401.692,707.563 401,708.5C 400.536,707.906 400.369,707.239 400.5,706.5 Z"/></g>
<g><path style="opacity:0.004" fill="#1a1818" d="M 514.5,708.5 C 515.833,709.167 515.833,709.167 514.5,708.5 Z"/></g>
<g><path style="opacity:0.004" fill="#202120" d="M 399.5,711.5 C 400.833,712.167 400.833,712.167 399.5,711.5 Z"/></g>
<g><path style="opacity:0.004" fill="#252522" d="M 754.5,711.5 C 755.833,712.167 755.833,712.167 754.5,711.5 Z"/></g>
<g><path style="opacity:0.006" fill="#1a1919" d="M 475.5,715.5 C 475.483,717.028 474.816,717.528 473.5,717C 474.044,716.283 474.711,715.783 475.5,715.5 Z"/></g>
<g><path style="opacity:0.004" fill="#242521" d="M 755.5,717.5 C 756.833,718.167 756.833,718.167 755.5,717.5 Z"/></g>
<g><path style="opacity:0.012" fill="#212523" d="M 755.5,728.5 C 756.833,729.167 756.833,729.167 755.5,728.5 Z"/></g>
<g><path style="opacity:0.008" fill="#242120" d="M 399.5,737.5 C 400.833,738.167 400.833,738.167 399.5,737.5 Z"/></g>
<g><path style="opacity:0.008" fill="#222120" d="M 399.5,739.5 C 400.833,740.167 400.833,740.167 399.5,739.5 Z"/></g>
<g><path style="opacity:0.004" fill="#212220" d="M 401.5,743.5 C 400.833,742.167 400.833,742.167 401.5,743.5 Z"/></g>
<g><path style="opacity:0.004" fill="#1e1f1e" d="M 639.5,742.5 C 640.833,743.167 640.833,743.167 639.5,742.5 Z"/></g>
<g><path style="opacity:0.004" fill="#2d2d2b" d="M 403.5,745.5 C 404.404,746.209 404.737,747.209 404.5,748.5C 403.833,748.5 403.167,748.5 402.5,748.5C 403.11,747.609 403.443,746.609 403.5,745.5 Z"/></g>
<g><path style="opacity:0.008" fill="#212122" d="M 402.5,748.5 C 402.103,749.525 401.437,749.692 400.5,749C 401.094,748.536 401.761,748.369 402.5,748.5 Z"/></g>
<g><path style="opacity:0.004" fill="#20221f" d="M 404.5,749.5 C 404.631,750.239 404.464,750.906 404,751.5C 403.308,750.563 403.475,749.897 404.5,749.5 Z"/></g>
<g><path style="opacity:0.004" fill="#212420" d="M 643.5,752.5 C 644.833,753.167 644.833,753.167 643.5,752.5 Z"/></g>
<g><path style="opacity:0.004" fill="#252725" d="M 747.5,754.5 C 748.833,755.167 748.833,755.167 747.5,754.5 Z"/></g>
<g><path style="opacity:0.004" fill="#282827" d="M 749.5,754.5 C 750.833,755.167 750.833,755.167 749.5,754.5 Z"/></g>
<g><path style="opacity:0.008" fill="#1d1f1e" d="M 506.5,757.5 C 507.833,758.167 507.833,758.167 506.5,757.5 Z"/></g>
<g><path style="opacity:0.004" fill="#202020" d="M 647.5,760.5 C 648.833,761.167 648.833,761.167 647.5,760.5 Z"/></g>
<g><path style="opacity:0.004" fill="#252423" d="M 651.5,762.5 C 650.833,763.167 650.833,763.167 651.5,762.5 Z"/></g>
<g><path style="opacity:0.008" fill="#232422" d="M 653.5,766.5 C 654.833,767.167 654.833,767.167 653.5,766.5 Z"/></g>
<g><path style="opacity:0.004" fill="#212020" d="M 421.5,771.5 C 420.833,772.167 420.833,772.167 421.5,771.5 Z"/></g>
<g><path style="opacity:0.004" fill="#20231f" d="M 420.5,773.5 C 421.833,774.167 421.833,774.167 420.5,773.5 Z"/></g>
<g><path style="opacity:0.004" fill="#252321" d="M 658.5,773.5 C 659.833,774.167 659.833,774.167 658.5,773.5 Z"/></g>
<g><path style="opacity:0.004" fill="#242523" d="M 660.5,773.5 C 661.833,774.167 661.833,774.167 660.5,773.5 Z"/></g>
<g><path style="opacity:0.004" fill="#272926" d="M 721.5,778.5 C 722.833,779.167 722.833,779.167 721.5,778.5 Z"/></g>
<g><path style="opacity:0.004" fill="#222421" d="M 431.5,779.5 C 432.833,780.167 432.833,780.167 431.5,779.5 Z"/></g>
<g><path style="opacity:0.008" fill="#252322" d="M 671.5,780.5 C 671.897,779.475 672.563,779.308 673.5,780C 672.906,780.464 672.239,780.631 671.5,780.5 Z"/></g>
<g><path style="opacity:0.012" fill="#252825" d="M 718.5,779.5 C 719.833,780.167 719.833,780.167 718.5,779.5 Z"/></g>
<g><path style="opacity:0.008" fill="#242624" d="M 716.5,780.5 C 717.833,781.167 717.833,781.167 716.5,780.5 Z"/></g>
<g><path style="opacity:0.008" fill="#262523" d="M 676.5,781.5 C 675.833,782.167 675.833,782.167 676.5,781.5 Z"/></g>
<g><path style="opacity:0.008" fill="#1e201c" d="M 431.5,782.5 C 432.833,783.167 432.833,783.167 431.5,782.5 Z"/></g>
<g><path style="opacity:0.008" fill="#222122" d="M 437.5,779.5 C 438.492,779.328 439.158,779.662 439.5,780.5C 438.262,780.81 438.262,781.31 439.5,782C 443.186,783.199 442.853,783.533 438.5,783C 437.663,781.989 437.33,780.822 437.5,779.5 Z"/></g>
<g><path style="opacity:0.004" fill="#282728" d="M 680.5,782.5 C 681.833,783.167 681.833,783.167 680.5,782.5 Z"/></g>
<g><path style="opacity:0.004" fill="#444644" d="M 20.5,840.5 C 21.8333,841.167 21.8333,841.167 20.5,840.5 Z"/></g>
<g><path style="opacity:0.004" fill="#2f2f2d" d="M 171.5,925.5 C 172.833,926.167 172.833,926.167 171.5,925.5 Z"/></g>
</svg>
